<svg width="42" height="42" viewBox="0 0 42 42" fill="none" xmlns="http://www.w3.org/2000/svg">
<path d="M35.4329 19.6631L22.3336 6.566C22.1542 6.38656 21.9413 6.24422 21.7069 6.1471C21.4725 6.04999 21.2213 6 20.9676 6C20.7139 6 20.4626 6.04999 20.2283 6.1471C19.9939 6.24422 19.7809 6.38656 19.6016 6.566L16.8827 9.2848L20.3329 12.7349C20.7398 12.5959 21.1775 12.5742 21.5962 12.6721C22.0148 12.7701 22.3975 12.9837 22.7006 13.2887C23.0036 13.5937 23.2148 13.9778 23.3101 14.397C23.4053 14.8163 23.3808 15.2539 23.2392 15.6599L26.5638 18.9862C27.0556 18.813 27.5918 18.8125 28.084 18.9847C28.5762 19.1569 28.995 19.4916 29.2716 19.9337C29.5482 20.3757 29.666 20.8988 29.6057 21.4167C29.5453 21.9346 29.3103 22.4166 28.9395 22.7832C28.5641 23.1609 28.0691 23.3965 27.5393 23.4499C27.0094 23.5032 26.4774 23.371 26.0343 23.0757C25.5911 22.7804 25.2642 22.3403 25.1094 21.8308C24.9546 21.3212 24.9815 20.7738 25.1856 20.2819L22.0861 17.1806V25.3426C22.5572 25.5758 22.9342 25.9634 23.1541 26.4408C23.3741 26.9183 23.4238 27.4567 23.2949 27.9663C23.1661 28.476 22.8664 28.926 22.4459 29.2415C22.0255 29.557 21.5095 29.7189 20.9842 29.7001C20.4588 29.6813 19.9558 29.4831 19.5589 29.1384C19.162 28.7937 18.8952 28.3234 18.803 27.8059C18.7108 27.2884 18.7988 26.7549 19.0523 26.2943C19.3058 25.8338 19.7094 25.4741 20.196 25.2751V17.0381C19.9153 16.923 19.6601 16.7536 19.4452 16.5395C19.2302 16.3254 19.0598 16.0708 18.9437 15.7906C18.8276 15.5103 18.7682 15.2098 18.7688 14.9064C18.7694 14.6031 18.83 14.3028 18.9472 14.023L15.5477 10.6217L6.56601 19.6031C6.38657 19.7825 6.24422 19.9954 6.14711 20.2298C6.04999 20.4641 6 20.7154 6 20.9691C6 21.2228 6.04999 21.474 6.14711 21.7084C6.24422 21.9427 6.38657 22.1557 6.56601 22.335L19.6653 35.434C19.8447 35.6134 20.0576 35.7558 20.292 35.8529C20.5264 35.95 20.7776 36 21.0313 36C21.285 36 21.5363 35.95 21.7706 35.8529C22.005 35.7558 22.218 35.6134 22.3973 35.434L35.4348 22.3969C35.7967 22.0344 36 21.5432 36 21.0309C36 20.5187 35.7967 20.0274 35.4348 19.665" fill="#757232"/>
</svg>
