<svg width="42" height="42" viewBox="0 0 42 42" fill="none" xmlns="http://www.w3.org/2000/svg">
<path d="M13.2289 18.2336C15.3089 22.2963 18.66 25.6125 22.7478 27.6941L25.9256 24.5358C26.3156 24.1482 26.8933 24.019 27.3989 24.1913C29.0167 24.7225 30.7644 25.0096 32.5556 25.0096C33.35 25.0096 34 25.6556 34 26.4452V31.4554C34 32.245 33.35 32.891 32.5556 32.891C18.9922 32.891 8 21.9661 8 8.48589C8 7.69631 8.65 7.05029 9.44444 7.05029H14.5C15.2944 7.05029 15.9444 7.69631 15.9444 8.48589C15.9444 10.2804 16.2333 12.0031 16.7678 13.611C16.9267 14.1134 16.8111 14.6733 16.4067 15.0753L13.2289 18.2336Z" fill="#757232"/>
</svg>
